<svg data-v-fde0c5aa="" xmlns="http://www.w3.org/2000/svg" viewBox="0 0 300 300" class="iconAboveSlogan"><!----><defs data-v-fde0c5aa=""><!----></defs><rect data-v-fde0c5aa="" fill="#FAF6F1" x="0" y="0" width="300px" height="300px" class="logo-background-square"></rect><defs data-v-fde0c5aa=""><!----></defs><g data-v-fde0c5aa="" id="e45da907-e3e1-486c-b407-dd95b9cf5029" fill="#3E2B18" transform="matrix(3.5410494535273833,0,0,3.5410494535273833,16.195584875171242,146.59208162660943)"><path d="M9.00 7.31Q8.99 7.48 8.82 7.70Q8.65 7.92 8.47 8.04Q8.29 8.16 8.18 8.19L8.18 8.19Q7.92 8.26 7.94 8.04L7.94 8.04Q7.99 7.45 7.75 6.88Q7.50 6.31 7.01 5.94Q6.52 5.56 5.93 5.45Q5.33 5.33 4.77 5.49L4.77 5.49Q3.02 5.96 2.34 8.92L2.34 8.92Q1.82 11.14 2.62 12.63L2.62 12.63Q3.07 13.47 3.86 13.94Q4.66 14.41 5.57 14.38Q6.47 14.35 7.03 13.96Q7.59 13.57 7.83 12.92L7.83 12.92Q7.91 12.73 8.11 12.52Q8.32 12.31 8.52 12.21Q8.72 12.12 8.81 12.20Q8.90 12.28 8.83 12.47L8.83 12.47Q8.60 13.06 8.14 13.64Q7.69 14.22 7.08 14.64L7.08 14.64Q6.02 15.40 4.91 15.44Q3.79 15.47 2.93 14.97Q2.07 14.46 1.60 13.58L1.60 13.58Q0.73 11.96 1.30 9.53L1.30 9.53Q1.95 6.75 3.79 5.28L3.79 5.28Q5.26 4.12 6.76 4.38L6.76 4.38Q7.45 4.51 7.98 4.93Q8.51 5.35 8.79 5.98Q9.07 6.61 9.00 7.31L9.00 7.31ZM14.48 7.34L14.48 7.34Q17.05 7.56 16.55 11.55L16.55 11.55Q16.34 13.15 15.61 14.11L15.61 14.11Q14.49 15.60 12.82 15.44L12.82 15.44Q10.00 15.19 10.43 11.80L10.43 11.80Q10.56 10.84 10.80 10.11Q11.05 9.38 11.54 8.75L11.54 8.75Q12.73 7.18 14.48 7.34ZM13.66 8.40L13.66 8.40Q12.60 8.30 12.22 8.81L12.22 8.81Q12.01 9.07 11.80 9.68Q11.59 10.29 11.49 11.10L11.49 11.10Q11.10 14.15 13.64 14.38L13.64 14.38Q14.60 14.46 14.91 14.06L14.91 14.06Q15.06 13.85 15.23 13.36Q15.40 12.88 15.48 12.25L15.48 12.25Q15.96 8.60 13.66 8.40ZM22.97 4.07Q22.99 3.91 23.16 3.69Q23.32 3.47 23.51 3.35Q23.69 3.22 23.80 3.19L23.80 3.19Q24.05 3.12 24.04 3.35L24.04 3.35L23.09 14.55Q23.07 14.70 22.90 14.92Q22.74 15.15 22.55 15.27Q22.37 15.40 22.26 15.43L22.26 15.43Q22.01 15.50 22.02 15.27L22.02 15.27L22.12 14.17Q21.41 15.05 20.65 15.33Q19.89 15.61 19.25 15.43L19.25 15.43Q17.26 14.85 18.05 10.81L18.05 10.81Q18.31 9.46 18.98 8.60L18.98 8.60Q20.15 7.11 21.80 7.34L21.80 7.34Q22.32 7.41 22.67 7.64L22.67 7.64L22.97 4.07ZM22.25 12.66L22.47 10.05Q22.29 8.55 20.96 8.40L20.96 8.40Q20.55 8.36 20.24 8.41L20.24 8.41Q19.80 8.50 19.66 8.68L19.66 8.68Q19.31 9.14 19.11 10.16L19.11 10.16Q18.38 13.89 20.12 14.36L20.12 14.36Q21 14.62 21.48 14.04L21.48 14.04Q21.84 13.61 22.20 12.74L22.20 12.74Q22.22 12.70 22.25 12.66L22.25 12.66ZM29.90 11.73L25.84 11.63Q25.79 14.22 28.10 14.38L28.10 14.38Q28.59 14.42 28.98 14.35L28.98 14.35Q29.48 14.27 29.54 14.15L29.54 14.15Q29.65 13.94 29.87 13.75Q30.09 13.55 30.27 13.49Q30.45 13.43 30.52 13.54L30.52 13.54Q30.62 13.72 30.25 14.20Q29.89 14.67 29.50 14.95Q29.12 15.22 28.76 15.32L28.76 15.32Q27.94 15.54 27.29 15.44L27.29 15.44Q24.53 15.26 24.81 11.96L24.81 11.96Q24.89 10.93 25.12 10.18Q25.34 9.44 25.83 8.78L25.83 8.78Q26.95 7.27 28.62 7.34L28.62 7.34Q31.26 7.43 30.83 10.85L30.83 10.85Q30.70 11.41 30.27 11.65L30.27 11.65Q30.10 11.75 29.90 11.73L29.90 11.73ZM25.94 10.58L25.94 10.58Q26.04 10.56 26.10 10.56L26.10 10.56L29.82 10.64Q29.78 8.47 27.82 8.40L27.82 8.40Q26.87 8.36 26.54 8.81L26.54 8.81Q26.12 9.37 25.94 10.58ZM40.21 7.31Q40.19 7.48 40.03 7.70Q39.86 7.92 39.68 8.04Q39.49 8.16 39.38 8.19L39.38 8.19Q39.13 8.26 39.14 8.04L39.14 8.04Q39.20 7.45 38.95 6.88Q38.71 6.31 38.22 5.94Q37.73 5.56 37.13 5.45Q36.54 5.33 35.98 5.49L35.98 5.49Q34.23 5.96 33.54 8.92L33.54 8.92Q33.03 11.14 33.82 12.63L33.82 12.63Q34.27 13.47 35.07 13.94Q35.87 14.41 36.77 14.38Q37.67 14.35 38.23 13.96Q38.79 13.57 39.03 12.92L39.03 12.92Q39.12 12.73 39.32 12.52Q39.52 12.31 39.73 12.21Q39.93 12.12 40.02 12.20Q40.11 12.28 40.04 12.47L40.04 12.47Q39.80 13.06 39.35 13.64Q38.89 14.22 38.29 14.64L38.29 14.64Q37.23 15.40 36.11 15.44Q35 15.47 34.14 14.97Q33.28 14.46 32.80 13.58L32.80 13.58Q31.93 11.96 32.51 9.53L32.51 9.53Q33.15 6.75 35 5.28L35 5.28Q36.47 4.12 37.97 4.38L37.97 4.38Q38.65 4.51 39.19 4.93Q39.72 5.35 40.00 5.98Q40.28 6.61 40.21 7.31L40.21 7.31ZM45.68 7.34L45.68 7.34Q48.26 7.56 47.75 11.55L47.75 11.55Q47.54 13.15 46.82 14.11L46.82 14.11Q45.70 15.60 44.03 15.44L44.03 15.44Q41.20 15.19 41.64 11.80L41.64 11.80Q41.76 10.84 42.01 10.11Q42.25 9.38 42.74 8.75L42.74 8.75Q43.93 7.18 45.68 7.34ZM44.87 8.40L44.87 8.40Q43.81 8.30 43.43 8.81L43.43 8.81Q43.22 9.07 43.01 9.68Q42.80 10.29 42.70 11.10L42.70 11.10Q42.31 14.15 44.84 14.38L44.84 14.38Q45.81 14.46 46.12 14.06L46.12 14.06Q46.27 13.85 46.44 13.36Q46.61 12.88 46.69 12.25L46.69 12.25Q47.17 8.60 44.87 8.40ZM49.69 8.22Q49.70 8.06 49.87 7.84Q50.04 7.62 50.22 7.50Q50.40 7.38 50.53 7.35L50.53 7.35Q50.78 7.29 50.75 7.50L50.75 7.50L50.68 8.12Q51.76 7.21 52.91 7.34L52.91 7.34Q53.10 7.36 53.00 7.63L53.00 7.63Q52.86 7.99 52.54 8.20Q52.22 8.41 52.09 8.40L52.09 8.40Q51.38 8.32 50.88 8.69L50.88 8.69Q50.64 8.88 50.54 9.55L50.54 9.55L50.01 14.56Q49.99 14.73 49.83 14.95Q49.66 15.16 49.48 15.28Q49.29 15.40 49.17 15.43L49.17 15.43Q48.92 15.48 48.94 15.26L48.94 15.26L49.46 10.36Q49.46 10.33 49.48 10.25L49.48 10.25L49.69 8.22ZM59.11 9.47Q59.00 9.69 58.78 9.88Q58.56 10.07 58.38 10.11Q58.20 10.15 58.16 10.04L58.16 10.04Q57.92 9.39 57.39 8.94Q56.87 8.48 56.29 8.40Q55.72 8.32 55.40 8.50L55.40 8.50Q55.12 9.09 55.55 9.74L55.55 9.74Q55.93 10.32 57.06 10.77L57.06 10.77Q57.83 11.07 58.09 11.21L58.09 11.21Q59.21 11.90 59.18 12.98L59.18 12.98Q59.15 13.83 58.37 14.62L58.37 14.62Q56.94 16.03 55.13 15.15L55.13 15.15Q54.11 14.64 53.45 13.59L53.45 13.59Q53.40 13.50 53.50 13.29Q53.61 13.08 53.82 12.88Q54.03 12.68 54.22 12.61Q54.42 12.54 54.47 12.64L54.47 12.64Q55.23 13.83 56.41 14.25L56.41 14.25Q57.16 14.52 57.76 14.32L57.76 14.32Q57.96 14.25 58.00 14.20L58.00 14.20Q58.18 13.89 58.07 13.40L58.07 13.40Q57.88 12.50 56.52 11.96L56.52 11.96Q56.46 11.93 56.20 11.83L56.20 11.83Q55.44 11.54 55.19 11.34L55.19 11.34Q53.91 10.42 54.35 9.13L54.35 9.13Q54.52 8.61 54.91 8.20L54.91 8.20Q55.90 7.17 57.06 7.34L57.06 7.34Q57.79 7.43 58.37 7.93Q58.94 8.43 59.19 9.14L59.19 9.14Q59.23 9.25 59.11 9.47ZM66.67 13.96Q66.85 13.93 66.88 14.06Q66.91 14.20 66.76 14.42Q66.61 14.64 66.26 14.92Q65.91 15.20 65.52 15.36L65.52 15.36Q64.75 15.67 64.57 15.08L64.57 15.08Q64.48 14.84 64.50 14.20L64.50 14.20Q63.77 15.08 63.03 15.34Q62.29 15.61 61.64 15.43L61.64 15.43Q59.64 14.87 60.44 10.81L60.44 10.81Q60.70 9.46 61.38 8.60L61.38 8.60Q62.52 7.11 64.19 7.34L64.19 7.34Q64.89 7.42 65.28 7.85L65.28 7.85Q65.60 7.42 65.95 7.34L65.95 7.34Q66.07 7.31 66.13 7.36Q66.19 7.41 66.18 7.52L66.18 7.52Q65.37 13.44 65.60 14.18L65.60 14.18Q65.72 14.52 65.97 14.39L65.97 14.39Q66.08 14.34 66.29 14.16Q66.50 13.99 66.67 13.96ZM64.57 12.80L64.57 12.80Q64.67 11.68 64.71 11.37L64.71 11.37Q65.07 8.62 63.35 8.40L63.35 8.40Q62.93 8.34 62.62 8.41L62.62 8.41Q62.20 8.50 62.05 8.68L62.05 8.68Q61.70 9.13 61.47 10.28Q61.25 11.42 61.28 12.31L61.28 12.31Q61.36 14.04 62.51 14.36L62.51 14.36Q63.39 14.62 63.87 14.04L63.87 14.04Q64.22 13.62 64.57 12.80ZM68.49 8.22Q68.50 8.06 68.67 7.84Q68.84 7.62 69.02 7.50Q69.20 7.38 69.33 7.35L69.33 7.35Q69.58 7.29 69.55 7.50L69.55 7.50L68.81 14.56Q68.80 14.73 68.63 14.95Q68.46 15.16 68.28 15.28Q68.10 15.40 67.97 15.43L67.97 15.43Q67.72 15.48 67.75 15.26L67.75 15.26L68.49 8.22ZM68.56 5.81Q68.57 5.66 68.73 5.43Q68.89 5.21 69.08 5.08Q69.26 4.96 69.38 4.93L69.38 4.93Q69.64 4.86 69.62 5.08L69.62 5.08L69.55 6.06Q69.54 6.22 69.38 6.44Q69.22 6.66 69.03 6.79Q68.85 6.92 68.73 6.94L68.73 6.94Q68.47 7.01 68.49 6.79L68.49 6.79L68.56 5.81ZM71.15 8.22Q71.16 8.06 71.33 7.84Q71.50 7.62 71.68 7.50Q71.86 7.38 71.99 7.35L71.99 7.35Q72.24 7.29 72.21 7.50L72.21 7.50L72.14 8.12Q73.22 7.21 74.37 7.34L74.37 7.34Q74.56 7.36 74.47 7.63L74.47 7.63Q74.33 7.99 74.00 8.20Q73.68 8.41 73.56 8.40L73.56 8.40Q72.84 8.32 72.34 8.69L72.34 8.69Q72.10 8.88 72.00 9.55L72.00 9.55L71.47 14.56Q71.46 14.73 71.29 14.95Q71.12 15.16 70.94 15.28Q70.76 15.40 70.63 15.43L70.63 15.43Q70.38 15.48 70.41 15.26L70.41 15.26L70.92 10.36Q70.92 10.33 70.94 10.25L70.94 10.25L71.15 8.22Z"></path></g><defs data-v-fde0c5aa=""><linearGradient data-v-fde0c5aa="" gradientTransform="rotate(25)" id="e5fafbb1-0bfb-40b8-b074-dd5f0efe522c" x1="0%" y1="0%" x2="100%" y2="0%"><stop data-v-fde0c5aa="" offset="0%" stop-color="#913C00" stop-opacity="1"></stop><stop data-v-fde0c5aa="" offset="100%" stop-color="#D9AD76" stop-opacity="1"></stop></linearGradient></defs><g data-v-fde0c5aa="" id="650c31fd-c80a-4272-a901-dce42150d005" stroke="none" fill="url(#e5fafbb1-0bfb-40b8-b074-dd5f0efe522c)" transform="matrix(0.9411373997653995,0,0,0.9411373997653995,102.94312731911432,60.39819174676346)"><path d="M66.8 74.7c-.2.2-.3.5-.4.8 0 .6.5 1.2 1.1 1.2.6 0 1.2-.5 1.2-1.1 0-.6-.5-1.2-1.1-1.2-.3 0-.6.1-.8.3zM57 74.7c-.2.2-.3.5-.4.8 0 .6.5 1.2 1.1 1.2.6 0 1.2-.5 1.2-1.1 0-.6-.5-1.2-1.1-1.2-.2 0-.5.1-.8.3zM46.5 74.5c-.2.2-.3.5-.4.8 0 .6.5 1.2 1.1 1.2.6 0 1.2-.5 1.2-1.1 0-.6-.5-1.2-1.1-1.2-.3 0-.6.1-.8.3z"></path><path d="M19.6 65.4v2.4c6.9 1 14.7 9.6 15.6 16.6l46.4-.1 5.8-9.7v.1H93v-5.4h1.8v-4.7H75.6v4.2h-3.5v-6.3h22.4v-1H72.2v-1.6h21.7l-7.1-21.4-14.6 7.4v-1.5l15.1-8.3-.5-.9-14.6 8v-1.7L86 34.2s-4.4-1.7-5.5-5.5c-.8-2.6-2-8.5-2-8.5l-6.4 2.6v-1.5l6.2-2.5-.3-.8-5.8 2.3v-4.7h-1.8v53.1l-14.9-.1-1.5-3.4-5.7-.3v-2.7h20.2v-1H48.2v-1.5h19.9l-6.6-14.5H48.2V44h20.3v-1H48.2v-1.3h19.2s-8.1-6.2-8.9-8.7c-1.1-3.3-2.6-10.8-2.6-10.8l-7.7 3.1V24l7.8-3.3-.4-.9-7.4 3.2v-7.4h-1.8v4.8C45.1 29 38.9 54.9 8.7 61.9l-3.3-.3-.2 1.7 14.4 2.1zm45 10.1c.1-1.6 1.5-2.9 3.1-2.9 1.6.1 2.9 1.4 2.9 3.1 0 .7-.4 1.5-.9 2-.6.6-1.3.9-2.1.9-1.8-.1-3.1-1.5-3-3.1zm-9.8 0c.1-1.6 1.5-2.9 3.1-2.9 1.6.1 2.9 1.4 2.9 3.1 0 .7-.4 1.5-.9 2-.6.6-1.3.9-2.1.9-1.7-.1-3-1.5-3-3.1zm-8.4-47.6c-1.2 9.7-6.9 28.3-31.7 34.5l-2.4-.2c23.1-6.7 31.2-24.6 34.1-35.6v1.3zm-2 47.3c.1-1.6 1.5-2.9 3.1-2.9 1.6.1 2.9 1.4 2.9 3.1 0 .8-.4 1.5-.9 2-.6.6-1.4.9-2.1.9-1.7-.1-3-1.5-3-3.1zM24.6 63.5c13.5-4.9 19.3-14.1 21.8-22V65l-21.8-1.5zm-3.1-.3l-3.4-.4C36.7 57 43.7 44.1 46.4 34.3v2.3c-1.5 8.9-6.9 21.3-24.9 26.6z"></path></g><defs data-v-fde0c5aa=""><!----></defs><g data-v-fde0c5aa="" id="1ec94b76-0014-4ab2-917f-92d4aca7344c" fill="#3E2B18" transform="matrix(0.8175004898470366,0,0,0.8175004898470366,51.81874955930959,208.93229035447465)"><path d="M6.52 9.47Q6.40 9.69 6.18 9.88Q5.96 10.07 5.78 10.11Q5.60 10.15 5.56 10.04L5.56 10.04Q5.32 9.39 4.79 8.94Q4.27 8.48 3.70 8.40Q3.12 8.32 2.80 8.50L2.80 8.50Q2.52 9.09 2.95 9.74L2.95 9.74Q3.33 10.32 4.47 10.77L4.47 10.77Q5.24 11.07 5.49 11.21L5.49 11.21Q6.61 11.90 6.58 12.98L6.58 12.98Q6.55 13.83 5.77 14.62L5.77 14.62Q4.34 16.03 2.53 15.15L2.53 15.15Q1.51 14.64 0.85 13.59L0.85 13.59Q0.80 13.50 0.90 13.29Q1.01 13.08 1.22 12.88Q1.43 12.68 1.62 12.61Q1.82 12.54 1.88 12.64L1.88 12.64Q2.63 13.83 3.81 14.25L3.81 14.25Q4.56 14.52 5.17 14.32L5.17 14.32Q5.36 14.25 5.40 14.20L5.40 14.20Q5.59 13.89 5.47 13.40L5.47 13.40Q5.28 12.50 3.92 11.96L3.92 11.96Q3.86 11.93 3.60 11.83L3.60 11.83Q2.84 11.54 2.59 11.34L2.59 11.34Q1.32 10.42 1.75 9.13L1.75 9.13Q1.92 8.61 2.31 8.20L2.31 8.20Q3.30 7.17 4.47 7.34L4.47 7.34Q5.19 7.43 5.77 7.93Q6.34 8.43 6.59 9.14L6.59 9.14Q6.64 9.25 6.52 9.47ZM8.67 8.22Q8.68 8.06 8.85 7.84Q9.02 7.62 9.20 7.50Q9.38 7.38 9.51 7.35L9.51 7.35Q9.76 7.29 9.73 7.50L9.73 7.50L9.63 8.43Q10.02 7.98 10.58 7.66Q11.14 7.34 11.73 7.34L11.73 7.34Q13.10 7.32 13.44 8.71L13.44 8.71Q13.93 8.06 14.56 7.70Q15.19 7.34 15.78 7.34L15.78 7.34Q17.75 7.31 17.40 10.63L17.40 10.63L17.07 14.55Q17.05 14.70 16.88 14.92Q16.72 15.15 16.53 15.27Q16.35 15.40 16.24 15.43L16.24 15.43Q15.99 15.50 16.00 15.27L16.00 15.27L16.34 11.35Q16.66 8.39 15.02 8.40L15.02 8.40Q14.62 8.40 14.42 8.51L14.42 8.51Q13.94 8.79 13.54 9.98L13.54 9.98Q13.52 10.29 13.50 10.63L13.50 10.63L13.16 14.55Q13.15 14.70 12.98 14.92Q12.81 15.15 12.63 15.27Q12.45 15.40 12.33 15.43L12.33 15.43Q12.08 15.50 12.10 15.27L12.10 15.27L12.43 11.35Q12.46 11.03 12.46 10.86Q12.46 10.70 12.47 10.64L12.47 10.64Q12.52 8.37 10.98 8.40L10.98 8.40Q10.57 8.40 10.37 8.51L10.37 8.51Q9.88 8.79 9.46 10.05L9.46 10.05Q9.46 10.07 9.46 10.09L9.46 10.09L8.99 14.56Q8.97 14.73 8.81 14.95Q8.64 15.16 8.46 15.28Q8.27 15.40 8.15 15.43L8.15 15.43Q7.90 15.48 7.92 15.26L7.92 15.26L8.67 8.22ZM22.99 7.34L22.99 7.34Q25.56 7.56 25.06 11.55L25.06 11.55Q24.85 13.15 24.12 14.11L24.12 14.11Q23.00 15.60 21.34 15.44L21.34 15.44Q18.51 15.19 18.94 11.80L18.94 11.80Q19.07 10.84 19.31 10.11Q19.56 9.38 20.05 8.75L20.05 8.75Q21.24 7.18 22.99 7.34ZM22.18 8.40L22.18 8.40Q21.11 8.30 20.73 8.81L20.73 8.81Q20.52 9.07 20.31 9.68Q20.10 10.29 20.01 11.10L20.01 11.10Q19.61 14.15 22.15 14.38L22.15 14.38Q23.11 14.46 23.42 14.06L23.42 14.06Q23.58 13.85 23.74 13.36Q23.91 12.88 24.00 12.25L24.00 12.25Q24.47 8.60 22.18 8.40ZM30.52 7.34L30.52 7.34Q33.10 7.56 32.59 11.55L32.59 11.55Q32.38 13.15 31.65 14.11L31.65 14.11Q30.53 15.60 28.87 15.44L28.87 15.44Q26.04 15.19 26.47 11.80L26.47 11.80Q26.60 10.84 26.84 10.11Q27.09 9.38 27.58 8.75L27.58 8.75Q28.77 7.18 30.52 7.34ZM29.71 8.40L29.71 8.40Q28.64 8.30 28.27 8.81L28.27 8.81Q28.06 9.07 27.85 9.68Q27.64 10.29 27.54 11.10L27.54 11.10Q27.15 14.15 29.68 14.38L29.68 14.38Q30.65 14.46 30.95 14.06L30.95 14.06Q31.11 13.85 31.28 13.36Q31.44 12.88 31.53 12.25L31.53 12.25Q32.00 8.60 29.71 8.40ZM37.61 13.77Q37.79 13.73 37.81 13.87Q37.84 14 37.70 14.22Q37.56 14.43 37.16 14.76Q36.75 15.09 36.26 15.30L36.26 15.30Q35.29 15.69 34.82 15.11L34.82 15.11Q34.37 14.59 34.58 13.13L34.58 13.13L34.94 8.92L33.88 8.92Q33.67 8.92 33.77 8.65L33.77 8.65Q33.88 8.30 34.20 8.07Q34.51 7.84 34.66 7.84L34.66 7.84L35.04 7.84L35.25 5.45Q35.27 5.29 35.43 5.07Q35.60 4.84 35.78 4.72Q35.97 4.59 36.08 4.56L36.08 4.56Q36.33 4.49 36.32 4.72L36.32 4.72L36.05 7.84Q36.67 7.84 37.27 7.84L37.27 7.84Q37.48 7.84 37.38 8.12L37.38 8.12Q37.27 8.47 36.95 8.69Q36.64 8.92 36.48 8.92L36.48 8.92L35.95 8.92L35.64 12.42Q35.64 12.43 35.64 12.45L35.64 12.45Q35.45 13.71 35.83 14.13L35.83 14.13Q36.18 14.56 36.68 14.34L36.68 14.34Q36.92 14.22 37.18 14.01Q37.44 13.80 37.61 13.77ZM39.89 4.02Q39.90 3.85 40.07 3.63Q40.24 3.40 40.42 3.28Q40.60 3.16 40.71 3.14L40.71 3.14Q40.96 3.07 40.95 3.29L40.95 3.29L40.47 8.54Q40.91 8.02 41.49 7.68Q42.07 7.34 42.66 7.34L42.66 7.34Q45.05 7.31 44.70 10.63L44.70 10.63L44.37 14.55Q44.35 14.70 44.18 14.92Q44.02 15.15 43.83 15.27Q43.65 15.40 43.54 15.43L43.54 15.43Q43.29 15.50 43.30 15.27L43.30 15.27L43.64 11.35Q43.96 8.39 41.90 8.40L41.90 8.40Q41.50 8.40 41.30 8.51L41.30 8.51Q40.81 8.79 40.39 10.05L40.39 10.05Q40.36 10.14 40.31 10.23L40.31 10.23L39.91 14.55Q39.90 14.70 39.73 14.93Q39.56 15.16 39.38 15.28Q39.20 15.40 39.09 15.43L39.09 15.43Q38.84 15.50 38.85 15.27L38.85 15.27L39.89 4.02ZM54.57 9.47Q54.45 9.69 54.23 9.88Q54.01 10.07 53.83 10.11Q53.65 10.15 53.61 10.04L53.61 10.04Q53.37 9.39 52.84 8.94Q52.32 8.48 51.74 8.40Q51.17 8.32 50.85 8.50L50.85 8.50Q50.57 9.09 51.00 9.74L51.00 9.74Q51.38 10.32 52.51 10.77L52.51 10.77Q53.28 11.07 53.54 11.21L53.54 11.21Q54.66 11.90 54.63 12.98L54.63 12.98Q54.60 13.83 53.82 14.62L53.82 14.62Q52.39 16.03 50.58 15.15L50.58 15.15Q49.56 14.64 48.90 13.59L48.90 13.59Q48.85 13.50 48.95 13.29Q49.06 13.08 49.27 12.88Q49.48 12.68 49.67 12.61Q49.87 12.54 49.92 12.64L49.92 12.64Q50.68 13.83 51.86 14.25L51.86 14.25Q52.61 14.52 53.21 14.32L53.21 14.32Q53.41 14.25 53.45 14.20L53.45 14.20Q53.63 13.89 53.52 13.40L53.52 13.40Q53.33 12.50 51.97 11.96L51.97 11.96Q51.91 11.93 51.65 11.83L51.65 11.83Q50.89 11.54 50.64 11.34L50.64 11.34Q49.36 10.42 49.80 9.13L49.80 9.13Q49.97 8.61 50.36 8.20L50.36 8.20Q51.35 7.17 52.51 7.34L52.51 7.34Q53.24 7.43 53.82 7.93Q54.39 8.43 54.64 9.14L54.64 9.14Q54.68 9.25 54.57 9.47ZM62.13 13.96Q62.30 13.93 62.33 14.06Q62.36 14.20 62.21 14.42Q62.06 14.64 61.71 14.92Q61.36 15.20 60.97 15.36L60.97 15.36Q60.20 15.67 60.02 15.08L60.02 15.08Q59.93 14.84 59.95 14.20L59.95 14.20Q59.22 15.08 58.48 15.34Q57.74 15.61 57.09 15.43L57.09 15.43Q55.09 14.87 55.89 10.81L55.89 10.81Q56.15 9.46 56.83 8.60L56.83 8.60Q57.97 7.11 59.64 7.34L59.64 7.34Q60.34 7.42 60.73 7.85L60.73 7.85Q61.05 7.42 61.40 7.34L61.40 7.34Q61.52 7.31 61.58 7.36Q61.64 7.41 61.63 7.52L61.63 7.52Q60.82 13.44 61.05 14.18L61.05 14.18Q61.17 14.52 61.42 14.39L61.42 14.39Q61.53 14.34 61.74 14.16Q61.95 13.99 62.13 13.96ZM60.02 12.80L60.02 12.80Q60.12 11.68 60.16 11.37L60.16 11.37Q60.52 8.62 58.80 8.40L58.80 8.40Q58.38 8.34 58.07 8.41L58.07 8.41Q57.65 8.50 57.50 8.68L57.50 8.68Q57.15 9.13 56.92 10.28Q56.70 11.42 56.73 12.31L56.73 12.31Q56.81 14.04 57.96 14.36L57.96 14.36Q58.84 14.62 59.32 14.04L59.32 14.04Q59.67 13.62 60.02 12.80ZM63.94 8.22Q63.95 8.06 64.12 7.84Q64.29 7.62 64.47 7.50Q64.65 7.38 64.78 7.35L64.78 7.35Q65.03 7.29 65.00 7.50L65.00 7.50L64.26 14.56Q64.25 14.73 64.08 14.95Q63.91 15.16 63.73 15.28Q63.55 15.40 63.42 15.43L63.42 15.43Q63.17 15.48 63.20 15.26L63.20 15.26L63.94 8.22ZM64.01 5.81Q64.02 5.66 64.18 5.43Q64.34 5.21 64.53 5.08Q64.71 4.96 64.83 4.93L64.83 4.93Q65.09 4.86 65.07 5.08L65.07 5.08L65.00 6.06Q64.99 6.22 64.83 6.44Q64.67 6.66 64.48 6.79Q64.30 6.92 64.18 6.94L64.18 6.94Q63.92 7.01 63.94 6.79L63.94 6.79L64.01 5.81ZM66.84 4.02Q66.85 3.85 67.02 3.63Q67.19 3.40 67.37 3.28Q67.55 3.16 67.66 3.14L67.66 3.14Q67.91 3.07 67.90 3.29L67.90 3.29L66.86 14.55Q66.85 14.70 66.68 14.93Q66.51 15.16 66.33 15.28Q66.15 15.40 66.04 15.43L66.04 15.43Q65.79 15.50 65.80 15.27L65.80 15.27L66.84 4.02ZM69.19 8.22Q69.20 8.06 69.37 7.84Q69.54 7.62 69.72 7.50Q69.90 7.38 70.03 7.35L70.03 7.35Q70.28 7.29 70.25 7.50L70.25 7.50L69.51 14.56Q69.50 14.73 69.33 14.95Q69.16 15.16 68.98 15.28Q68.80 15.40 68.67 15.43L68.67 15.43Q68.42 15.48 68.45 15.26L68.45 15.26L69.19 8.22ZM69.26 5.81Q69.27 5.66 69.43 5.43Q69.59 5.21 69.78 5.08Q69.96 4.96 70.08 4.93L70.08 4.93Q70.34 4.86 70.32 5.08L70.32 5.08L70.25 6.06Q70.24 6.22 70.08 6.44Q69.92 6.66 69.73 6.79Q69.55 6.92 69.43 6.94L69.43 6.94Q69.17 7.01 69.19 6.79L69.19 6.79L69.26 5.81ZM71.85 8.22Q71.86 8.06 72.03 7.84Q72.20 7.62 72.38 7.50Q72.56 7.38 72.69 7.35L72.69 7.35Q72.94 7.29 72.91 7.50L72.91 7.50L72.81 8.43Q73.21 7.98 73.77 7.66Q74.33 7.34 74.91 7.34L74.91 7.34Q77.31 7.31 76.96 10.63L76.96 10.63L76.62 14.55Q76.61 14.70 76.44 14.92Q76.27 15.15 76.09 15.27Q75.91 15.40 75.80 15.43L75.80 15.43Q75.54 15.50 75.56 15.27L75.56 15.27L75.89 11.35Q76.22 8.39 74.16 8.40L74.16 8.40Q73.75 8.40 73.56 8.51L73.56 8.51Q73.07 8.79 72.65 10.05L72.65 10.05Q72.65 10.07 72.65 10.09L72.65 10.09L72.17 14.56Q72.16 14.73 71.99 14.95Q71.82 15.16 71.64 15.28Q71.46 15.40 71.33 15.43L71.33 15.43Q71.08 15.48 71.11 15.26L71.11 15.26L71.85 8.22ZM83.78 7.78L83.78 7.78Q84.06 7.43 84.27 7.38L84.27 7.38Q84.62 7.28 84.60 7.49L84.60 7.49Q84.32 12.04 84.18 13.02L84.18 13.02Q84.07 14.18 83.82 15.02Q83.57 15.86 83.00 16.64Q82.43 17.42 81.68 17.79Q80.92 18.17 80.15 18.16L80.15 18.16Q78.57 18.14 77.98 17.18L77.98 17.18Q77.92 17.08 78.03 16.86Q78.13 16.65 78.34 16.46Q78.55 16.27 78.75 16.20Q78.95 16.13 79.02 16.23L79.02 16.23Q79.52 17.08 80.93 17.09L80.93 17.09Q81.94 17.11 82.32 16.56L82.32 16.56Q82.85 15.82 83.08 14.17L83.08 14.17Q82.35 15.06 81.60 15.34Q80.85 15.61 80.21 15.43L80.21 15.43Q78.20 14.87 79.00 10.81L79.00 10.81Q79.27 9.46 79.94 8.60L79.94 8.60Q81.09 7.11 82.75 7.34L82.75 7.34Q83.38 7.42 83.78 7.78ZM83.23 12.60L83.23 12.60Q83.33 11.52 83.31 11.52L83.31 11.52Q83.26 11.48 83.27 11.37L83.27 11.37Q83.64 8.62 81.91 8.40L81.91 8.40Q81.49 8.34 81.19 8.41L81.19 8.41Q80.75 8.50 80.61 8.68L80.61 8.68Q80.26 9.13 80.04 10.28Q79.81 11.42 79.84 12.31L79.84 12.31Q79.93 14.04 81.07 14.36L81.07 14.36Q81.96 14.62 82.43 14.04L82.43 14.04Q82.80 13.61 83.16 12.74L83.16 12.74Q83.19 12.67 83.23 12.60ZM92.00 13.77Q92.18 13.73 92.20 13.87Q92.23 14 92.09 14.22Q91.95 14.43 91.55 14.76Q91.14 15.09 90.65 15.30L90.65 15.30Q89.68 15.69 89.21 15.11L89.21 15.11Q88.76 14.59 88.97 13.13L88.97 13.13L89.33 8.92L88.27 8.92Q88.06 8.92 88.16 8.65L88.16 8.65Q88.27 8.30 88.59 8.07Q88.90 7.84 89.05 7.84L89.05 7.84L89.43 7.84L89.64 5.45Q89.66 5.29 89.82 5.07Q89.99 4.84 90.17 4.72Q90.36 4.59 90.47 4.56L90.47 4.56Q90.72 4.49 90.71 4.72L90.71 4.72L90.44 7.84Q91.06 7.84 91.66 7.84L91.66 7.84Q91.87 7.84 91.77 8.12L91.77 8.12Q91.66 8.47 91.34 8.69Q91.03 8.92 90.87 8.92L90.87 8.92L90.34 8.92L90.03 12.42Q90.03 12.43 90.03 12.45L90.03 12.45Q89.84 13.71 90.22 14.13L90.22 14.13Q90.57 14.56 91.07 14.34L91.07 14.34Q91.31 14.22 91.57 14.01Q91.83 13.80 92.00 13.77ZM94.28 4.02Q94.29 3.85 94.46 3.63Q94.63 3.40 94.81 3.28Q94.99 3.16 95.10 3.14L95.10 3.14Q95.35 3.07 95.34 3.29L95.34 3.29L94.86 8.54Q95.30 8.02 95.88 7.68Q96.46 7.34 97.05 7.34L97.05 7.34Q99.44 7.31 99.09 10.63L99.09 10.63L98.76 14.55Q98.74 14.70 98.57 14.92Q98.41 15.15 98.22 15.27Q98.04 15.40 97.93 15.43L97.93 15.43Q97.68 15.50 97.69 15.27L97.69 15.27L98.03 11.35Q98.35 8.39 96.29 8.40L96.29 8.40Q95.89 8.40 95.69 8.51L95.69 8.51Q95.20 8.79 94.78 10.05L94.78 10.05Q94.75 10.14 94.70 10.23L94.70 10.23L94.30 14.55Q94.29 14.70 94.12 14.93Q93.95 15.16 93.77 15.28Q93.59 15.40 93.48 15.43L93.48 15.43Q93.23 15.50 93.24 15.27L93.24 15.27L94.28 4.02ZM101.02 8.22Q101.04 8.06 101.21 7.84Q101.37 7.62 101.56 7.50Q101.74 7.38 101.86 7.35L101.86 7.35Q102.12 7.29 102.09 7.50L102.09 7.50L102.02 8.12Q103.10 7.21 104.24 7.34L104.24 7.34Q104.44 7.36 104.34 7.63L104.34 7.63Q104.20 7.99 103.88 8.20Q103.56 8.41 103.43 8.40L103.43 8.40Q102.72 8.32 102.21 8.69L102.21 8.69Q101.98 8.88 101.88 9.55L101.88 9.55L101.35 14.56Q101.33 14.73 101.16 14.95Q101.00 15.16 100.81 15.28Q100.63 15.40 100.51 15.43L100.51 15.43Q100.25 15.48 100.28 15.26L100.28 15.26L100.80 10.36Q100.80 10.33 100.81 10.25L100.81 10.25L101.02 8.22ZM109.02 7.34L109.02 7.34Q111.59 7.56 111.09 11.55L111.09 11.55Q110.88 13.15 110.15 14.11L110.15 14.11Q109.03 15.60 107.37 15.44L107.37 15.44Q104.54 15.19 104.97 11.80L104.97 11.80Q105.10 10.84 105.34 10.11Q105.59 9.38 106.08 8.75L106.08 8.75Q107.27 7.18 109.02 7.34ZM108.21 8.40L108.21 8.40Q107.14 8.30 106.76 8.81L106.76 8.81Q106.55 9.07 106.34 9.68Q106.13 10.29 106.04 11.10L106.04 11.10Q105.64 14.15 108.18 14.38L108.18 14.38Q109.14 14.46 109.45 14.06L109.45 14.06Q109.61 13.85 109.77 13.36Q109.94 12.88 110.03 12.25L110.03 12.25Q110.50 8.60 108.21 8.40ZM117.70 14.56Q117.68 14.71 117.52 14.94Q117.35 15.16 117.17 15.28Q116.98 15.40 116.86 15.43L116.86 15.43Q116.61 15.48 116.63 15.26L116.63 15.26L116.73 14.35Q116.34 14.80 115.78 15.12Q115.22 15.44 114.63 15.44L114.63 15.44Q112.24 15.47 112.59 12.14L112.59 12.14L112.92 8.23Q112.94 8.08 113.11 7.85Q113.27 7.62 113.46 7.50Q113.64 7.38 113.75 7.35L113.75 7.35Q114.00 7.28 113.99 7.50L113.99 7.50L113.65 11.42Q113.33 14.39 115.39 14.38L115.39 14.38Q115.79 14.38 115.99 14.27L115.99 14.27Q116.48 13.99 116.90 12.73L116.90 12.73Q116.90 12.71 116.90 12.68L116.90 12.68L117.38 8.22Q117.39 8.05 117.56 7.83Q117.73 7.62 117.91 7.50Q118.09 7.38 118.22 7.35L118.22 7.35Q118.47 7.29 118.44 7.50L118.44 7.50L117.70 14.56ZM125.05 7.78L125.05 7.78Q125.33 7.43 125.54 7.38L125.54 7.38Q125.89 7.28 125.87 7.49L125.87 7.49Q125.59 12.04 125.45 13.02L125.45 13.02Q125.34 14.18 125.09 15.02Q124.84 15.86 124.27 16.64Q123.70 17.42 122.95 17.79Q122.19 18.17 121.42 18.16L121.42 18.16Q119.84 18.14 119.25 17.18L119.25 17.18Q119.20 17.08 119.30 16.86Q119.41 16.65 119.62 16.46Q119.83 16.27 120.02 16.20Q120.22 16.13 120.29 16.23L120.29 16.23Q120.79 17.08 122.21 17.09L122.21 17.09Q123.21 17.11 123.59 16.56L123.59 16.56Q124.12 15.82 124.35 14.17L124.35 14.17Q123.62 15.06 122.87 15.34Q122.12 15.61 121.48 15.43L121.48 15.43Q119.48 14.87 120.27 10.81L120.27 10.81Q120.54 9.46 121.21 8.60L121.21 8.60Q122.36 7.11 124.03 7.34L124.03 7.34Q124.66 7.42 125.05 7.78ZM124.50 12.60L124.50 12.60Q124.60 11.52 124.59 11.52L124.59 11.52Q124.53 11.48 124.54 11.37L124.54 11.37Q124.91 8.62 123.19 8.40L123.19 8.40Q122.77 8.34 122.46 8.41L122.46 8.41Q122.02 8.50 121.88 8.68L121.88 8.68Q121.53 9.13 121.31 10.28Q121.09 11.42 121.11 12.31L121.11 12.31Q121.20 14.04 122.35 14.36L122.35 14.36Q123.23 14.62 123.70 14.04L123.70 14.04Q124.07 13.61 124.43 12.74L124.43 12.74Q124.46 12.67 124.50 12.60ZM127.44 4.02Q127.46 3.85 127.62 3.63Q127.79 3.40 127.97 3.28Q128.16 3.16 128.27 3.14L128.27 3.14Q128.52 3.07 128.51 3.29L128.51 3.29L128.03 8.54Q128.46 8.02 129.04 7.68Q129.63 7.34 130.21 7.34L130.21 7.34Q132.61 7.31 132.26 10.63L132.26 10.63L131.92 14.55Q131.91 14.70 131.74 14.92Q131.57 15.15 131.39 15.27Q131.21 15.40 131.10 15.43L131.10 15.43Q130.84 15.50 130.86 15.27L130.86 15.27L131.19 11.35Q131.52 8.39 129.46 8.40L129.46 8.40Q129.05 8.40 128.86 8.51L128.86 8.51Q128.37 8.79 127.95 10.05L127.95 10.05Q127.92 10.14 127.86 10.23L127.86 10.23L127.47 14.55Q127.46 14.70 127.29 14.93Q127.12 15.16 126.94 15.28Q126.76 15.40 126.64 15.43L126.64 15.43Q126.39 15.50 126.41 15.27L126.41 15.27L127.44 4.02ZM141.26 9.11L141.26 9.11Q141.71 8.79 141.79 9.04L141.79 9.04L143.00 13.43L145.25 8.08Q145.33 7.88 145.54 7.67Q145.74 7.46 145.94 7.38Q146.15 7.29 146.23 7.37Q146.31 7.45 146.23 7.66L146.23 7.66L143.25 14.73L142.83 15.22Q142.32 15.72 142.23 15.37L142.23 15.37L141.02 10.99L139.47 14.70Q139.37 14.94 139.17 15.11L139.17 15.11Q138.71 15.53 138.52 15.43L138.52 15.43Q138.45 15.40 138.45 15.32L138.45 15.32L136.72 8.30Q136.70 8.18 136.83 7.95Q136.96 7.73 137.18 7.55Q137.40 7.38 137.57 7.34Q137.75 7.31 137.79 7.43L137.79 7.43L139.23 13.36L140.77 9.69Q140.94 9.30 141.26 9.11ZM152.00 11.73L147.94 11.63Q147.88 14.22 150.19 14.38L150.19 14.38Q150.68 14.42 151.07 14.35L151.07 14.35Q151.58 14.27 151.63 14.15L151.63 14.15Q151.75 13.94 151.96 13.75Q152.18 13.55 152.36 13.49Q152.54 13.43 152.61 13.54L152.61 13.54Q152.71 13.72 152.35 14.20Q151.98 14.67 151.60 14.95Q151.21 15.22 150.85 15.32L150.85 15.32Q150.04 15.54 149.38 15.44L149.38 15.44Q146.62 15.26 146.90 11.96L146.90 11.96Q146.99 10.93 147.21 10.18Q147.43 9.44 147.92 8.78L147.92 8.78Q149.04 7.27 150.71 7.34L150.71 7.34Q153.36 7.43 152.92 10.85L152.92 10.85Q152.80 11.41 152.36 11.65L152.36 11.65Q152.19 11.75 152.00 11.73L152.00 11.73ZM148.04 10.58L148.04 10.58Q148.13 10.56 148.19 10.56L148.19 10.56L151.91 10.64Q151.87 8.47 149.91 8.40L149.91 8.40Q148.96 8.36 148.64 8.81L148.64 8.81Q148.22 9.37 148.04 10.58ZM156.94 15.44L156.94 15.44Q155.75 15.44 155.11 14.63L155.11 14.63Q155.06 14.77 154.92 14.96Q154.77 15.15 154.59 15.27Q154.41 15.40 154.29 15.43L154.29 15.43Q154.04 15.50 154.06 15.27L154.06 15.27L155.04 4.09Q155.05 3.93 155.22 3.71Q155.39 3.49 155.57 3.36Q155.75 3.23 155.86 3.21L155.86 3.21Q156.11 3.14 156.10 3.36L156.10 3.36L155.69 8.02Q156.45 7.32 157.36 7.34L157.36 7.34Q159.14 7.35 159.80 8.40Q160.45 9.45 160.02 11.35Q159.59 13.24 158.91 14.20L158.91 14.20Q158.47 14.81 157.93 15.13Q157.39 15.44 156.94 15.44ZM155.44 10.82L155.40 11.40Q155.40 11.41 155.40 11.42L155.40 11.42Q155.64 14.38 157.72 14.38L157.72 14.38Q158.02 14.38 158.07 14.33Q158.12 14.28 158.14 14.24L158.14 14.24L158.17 14.20Q158.61 13.59 158.94 12.14L158.94 12.14Q159.36 10.26 158.78 9.34Q158.20 8.41 156.58 8.40L156.58 8.40Q156.17 8.40 155.97 8.53L155.97 8.53Q155.79 8.75 155.65 9.43Q155.51 10.11 155.50 10.42Q155.48 10.74 155.44 10.82L155.44 10.82ZM169.37 4.07Q169.39 3.91 169.55 3.69Q169.72 3.47 169.90 3.35Q170.09 3.22 170.20 3.19L170.20 3.19Q170.45 3.12 170.44 3.35L170.44 3.35L169.48 14.55Q169.47 14.70 169.30 14.92Q169.13 15.15 168.95 15.27Q168.77 15.40 168.66 15.43L168.66 15.43Q168.41 15.50 168.42 15.27L168.42 15.27L168.52 14.17Q167.80 15.05 167.05 15.33Q166.29 15.61 165.65 15.43L165.65 15.43Q163.66 14.85 164.44 10.81L164.44 10.81Q164.71 9.46 165.38 8.60L165.38 8.60Q166.54 7.11 168.20 7.34L168.20 7.34Q168.71 7.41 169.06 7.64L169.06 7.64L169.37 4.07ZM168.64 12.66L168.87 10.05Q168.69 8.55 167.36 8.40L167.36 8.40Q166.95 8.36 166.64 8.41L166.64 8.41Q166.19 8.50 166.05 8.68L166.05 8.68Q165.70 9.14 165.51 10.16L165.51 10.16Q164.78 13.89 166.52 14.36L166.52 14.36Q167.40 14.62 167.87 14.04L167.87 14.04Q168.24 13.61 168.60 12.74L168.60 12.74Q168.62 12.70 168.64 12.66L168.64 12.66ZM176.30 11.73L172.24 11.63Q172.19 14.22 174.50 14.38L174.50 14.38Q174.99 14.42 175.38 14.35L175.38 14.35Q175.88 14.27 175.94 14.15L175.94 14.15Q176.05 13.94 176.27 13.75Q176.48 13.55 176.67 13.49Q176.85 13.43 176.92 13.54L176.92 13.54Q177.02 13.72 176.65 14.20Q176.29 14.67 175.90 14.95Q175.52 15.22 175.15 15.32L175.15 15.32Q174.34 15.54 173.68 15.44L173.68 15.44Q170.93 15.26 171.21 11.96L171.21 11.96Q171.29 10.93 171.51 10.18Q171.74 9.44 172.23 8.78L172.23 8.78Q173.35 7.27 175.01 7.34L175.01 7.34Q177.66 7.43 177.23 10.85L177.23 10.85Q177.10 11.41 176.67 11.65L176.67 11.65Q176.50 11.75 176.30 11.73L176.30 11.73ZM172.34 10.58L172.34 10.58Q172.44 10.56 172.49 10.56L172.49 10.56L176.22 10.64Q176.18 8.47 174.22 8.40L174.22 8.40Q173.26 8.36 172.94 8.81L172.94 8.81Q172.52 9.37 172.34 10.58ZM178.67 7.96Q178.81 7.74 179.02 7.56Q179.23 7.38 179.41 7.34Q179.59 7.31 179.63 7.42L179.63 7.42L181.31 13.41L183.57 8.08Q183.65 7.88 183.85 7.67Q184.06 7.46 184.26 7.38Q184.46 7.29 184.55 7.37Q184.63 7.45 184.55 7.66L184.55 7.66L181.58 14.70Q181.37 15.19 180.88 15.40L180.88 15.40Q180.60 15.53 180.56 15.34L180.56 15.34L178.57 8.30Q178.54 8.18 178.67 7.96ZM190.58 11.73L186.52 11.63Q186.47 14.22 188.78 14.38L188.78 14.38Q189.27 14.42 189.66 14.35L189.66 14.35Q190.16 14.27 190.22 14.15L190.22 14.15Q190.33 13.94 190.55 13.75Q190.76 13.55 190.95 13.49Q191.13 13.43 191.20 13.54L191.20 13.54Q191.30 13.72 190.93 14.20Q190.57 14.67 190.18 14.95Q189.80 15.22 189.43 15.32L189.43 15.32Q188.62 15.54 187.96 15.44L187.96 15.44Q185.21 15.26 185.49 11.96L185.49 11.96Q185.57 10.93 185.79 10.18Q186.02 9.44 186.51 8.78L186.51 8.78Q187.63 7.27 189.29 7.34L189.29 7.34Q191.94 7.43 191.51 10.85L191.51 10.85Q191.38 11.41 190.95 11.65L190.95 11.65Q190.78 11.75 190.58 11.73L190.58 11.73ZM186.62 10.58L186.62 10.58Q186.72 10.56 186.77 10.56L186.77 10.56L190.50 10.64Q190.46 8.47 188.50 8.40L188.50 8.40Q187.54 8.36 187.22 8.81L187.22 8.81Q186.80 9.37 186.62 10.58ZM193.63 4.02Q193.65 3.85 193.82 3.63Q193.98 3.40 194.17 3.28Q194.35 3.16 194.46 3.14L194.46 3.14Q194.71 3.07 194.70 3.29L194.70 3.29L193.66 14.55Q193.65 14.70 193.48 14.93Q193.31 15.16 193.13 15.28Q192.95 15.40 192.84 15.43L192.84 15.43Q192.58 15.50 192.60 15.27L192.60 15.27L193.63 4.02ZM199.51 7.34L199.51 7.34Q202.09 7.56 201.59 11.55L201.59 11.55Q201.38 13.15 200.65 14.11L200.65 14.11Q199.53 15.60 197.86 15.44L197.86 15.44Q195.03 15.19 195.47 11.80L195.47 11.80Q195.59 10.84 195.84 10.11Q196.08 9.38 196.57 8.75L196.57 8.75Q197.76 7.18 199.51 7.34ZM198.70 8.40L198.70 8.40Q197.64 8.30 197.26 8.81L197.26 8.81Q197.05 9.07 196.84 9.68Q196.63 10.29 196.53 11.10L196.53 11.10Q196.14 14.15 198.67 14.38L198.67 14.38Q199.64 14.46 199.95 14.06L199.95 14.06Q200.10 13.85 200.27 13.36Q200.44 12.88 200.52 12.25L200.52 12.25Q201.00 8.60 198.70 8.40ZM203.38 8.20Q203.39 8.04 203.56 7.82Q203.73 7.60 203.91 7.48Q204.09 7.35 204.20 7.32L204.20 7.32Q204.46 7.25 204.44 7.48L204.44 7.48L204.39 8.12Q205.23 7.32 206.37 7.34L206.37 7.34Q209.85 7.36 208.89 11.56L208.89 11.56Q208.53 13.16 207.96 13.96Q207.38 14.76 206.78 15.10Q206.18 15.44 205.65 15.44L205.65 15.44Q204.46 15.44 203.81 14.63L203.81 14.63Q203.81 14.63 203.46 18.66L203.46 18.66Q203.45 18.82 203.28 19.04Q203.11 19.26 202.93 19.39Q202.75 19.52 202.64 19.54L202.64 19.54Q202.38 19.61 202.40 19.39L202.40 19.39L203.38 8.20ZM204.15 10.79L204.11 11.38Q204.11 11.40 204.11 11.42L204.11 11.42Q204.34 14.38 206.43 14.38L206.43 14.38Q206.88 14.38 207.02 14.22L207.02 14.22Q207.51 13.72 207.89 12.00Q208.28 10.29 207.72 9.35Q207.16 8.41 205.59 8.40L205.59 8.40Q204.85 8.40 204.67 8.64Q204.50 8.88 204.35 9.41Q204.20 9.95 204.19 10.34Q204.18 10.72 204.15 10.79L204.15 10.79ZM210.88 8.22Q210.90 8.06 211.06 7.84Q211.23 7.62 211.41 7.50Q211.60 7.38 211.72 7.35L211.72 7.35Q211.97 7.29 211.95 7.50L211.95 7.50L211.85 8.43Q212.24 7.98 212.80 7.66Q213.36 7.34 213.95 7.34L213.95 7.34Q215.32 7.32 215.66 8.71L215.66 8.71Q216.15 8.06 216.78 7.70Q217.41 7.34 217.99 7.34L217.99 7.34Q219.97 7.31 219.62 10.63L219.62 10.63L219.28 14.55Q219.27 14.70 219.10 14.92Q218.93 15.15 218.75 15.27Q218.57 15.40 218.46 15.43L218.46 15.43Q218.20 15.50 218.22 15.27L218.22 15.27L218.55 11.35Q218.88 8.39 217.24 8.40L217.24 8.40Q216.83 8.40 216.64 8.51L216.64 8.51Q216.16 8.79 215.75 9.98L215.75 9.98Q215.74 10.29 215.71 10.63L215.71 10.63L215.38 14.55Q215.36 14.70 215.19 14.92Q215.03 15.15 214.84 15.27Q214.66 15.40 214.55 15.43L214.55 15.43Q214.30 15.50 214.31 15.27L214.31 15.27L214.65 11.35Q214.68 11.03 214.68 10.86Q214.68 10.70 214.69 10.64L214.69 10.64Q214.73 8.37 213.19 8.40L213.19 8.40Q212.79 8.40 212.59 8.51L212.59 8.51Q212.10 8.79 211.68 10.05L211.68 10.05Q211.68 10.07 211.68 10.09L211.68 10.09L211.20 14.56Q211.19 14.73 211.02 14.95Q210.85 15.16 210.67 15.28Q210.49 15.40 210.36 15.43L210.36 15.43Q210.11 15.48 210.14 15.26L210.14 15.26L210.88 8.22ZM226.23 11.73L222.17 11.63Q222.11 14.22 224.42 14.38L224.42 14.38Q224.91 14.42 225.30 14.35L225.30 14.35Q225.81 14.27 225.86 14.15L225.86 14.15Q225.97 13.94 226.19 13.75Q226.41 13.55 226.59 13.49Q226.77 13.43 226.84 13.54L226.84 13.54Q226.94 13.72 226.58 14.20Q226.21 14.67 225.83 14.95Q225.44 15.22 225.08 15.32L225.08 15.32Q224.27 15.54 223.61 15.44L223.61 15.44Q220.85 15.26 221.13 11.96L221.13 11.96Q221.21 10.93 221.44 10.18Q221.66 9.44 222.15 8.78L222.15 8.78Q223.27 7.27 224.94 7.34L224.94 7.34Q227.58 7.43 227.15 10.85L227.15 10.85Q227.02 11.41 226.59 11.65L226.59 11.65Q226.42 11.75 226.23 11.73L226.23 11.73ZM222.26 10.58L222.26 10.58Q222.36 10.56 222.42 10.56L222.42 10.56L226.14 10.64Q226.10 8.47 224.14 8.40L224.14 8.40Q223.19 8.36 222.87 8.81L222.87 8.81Q222.45 9.37 222.26 10.58ZM229.04 8.22Q229.05 8.06 229.22 7.84Q229.39 7.62 229.57 7.50Q229.75 7.38 229.88 7.35L229.88 7.35Q230.13 7.29 230.10 7.50L230.10 7.50L230.01 8.43Q230.40 7.98 230.96 7.66Q231.52 7.34 232.11 7.34L232.11 7.34Q234.50 7.31 234.15 10.63L234.15 10.63L233.81 14.55Q233.80 14.70 233.63 14.92Q233.46 15.15 233.28 15.27Q233.10 15.40 232.99 15.43L232.99 15.43Q232.74 15.50 232.75 15.27L232.75 15.27L233.09 11.35Q233.41 8.39 231.35 8.40L231.35 8.40Q230.94 8.40 230.75 8.51L230.75 8.51Q230.26 8.79 229.84 10.05L229.84 10.05Q229.84 10.07 229.84 10.09L229.84 10.09L229.36 14.56Q229.35 14.73 229.18 14.95Q229.01 15.16 228.83 15.28Q228.65 15.40 228.52 15.43L228.52 15.43Q228.27 15.48 228.30 15.26L228.30 15.26L229.04 8.22ZM239.16 13.77Q239.33 13.73 239.36 13.87Q239.39 14 239.25 14.22Q239.11 14.43 238.70 14.76Q238.29 15.09 237.80 15.30L237.80 15.30Q236.84 15.69 236.36 15.11L236.36 15.11Q235.91 14.59 236.12 13.13L236.12 13.13L236.49 8.92L235.42 8.92Q235.21 8.92 235.31 8.65L235.31 8.65Q235.42 8.30 235.74 8.07Q236.05 7.84 236.21 7.84L236.21 7.84L236.59 7.84L236.80 5.45Q236.81 5.29 236.98 5.07Q237.15 4.84 237.33 4.72Q237.51 4.59 237.62 4.56L237.62 4.56Q237.87 4.49 237.86 4.72L237.86 4.72L237.59 7.84Q238.21 7.84 238.81 7.84L238.81 7.84Q239.02 7.84 238.92 8.12L238.92 8.12Q238.81 8.47 238.50 8.69Q238.18 8.92 238.03 8.92L238.03 8.92L237.50 8.92L237.19 12.42Q237.19 12.43 237.19 12.45L237.19 12.45Q236.99 13.71 237.37 14.13L237.37 14.13Q237.72 14.56 238.22 14.34L238.22 14.34Q238.46 14.22 238.72 14.01Q238.98 13.80 239.16 13.77Z"></path></g></svg>