<svg data-v-fde0c5aa="" xmlns="http://www.w3.org/2000/svg" viewBox="0 0 300 300" class="font"><!----><defs data-v-fde0c5aa=""><!----></defs><rect data-v-fde0c5aa="" fill="#FAF6F1" x="0" y="0" width="300px" height="300px" class="logo-background-square"></rect><defs data-v-fde0c5aa=""><linearGradient data-v-fde0c5aa="" gradientTransform="rotate(25)" id="a6b3a9d2-e3c4-456e-8def-8bbb74085559" x1="0%" y1="0%" x2="100%" y2="0%"><stop data-v-fde0c5aa="" offset="0%" stop-color="#913C00" stop-opacity="1"></stop><stop data-v-fde0c5aa="" offset="100%" stop-color="#D9AD76" stop-opacity="1"></stop></linearGradient></defs><g data-v-fde0c5aa="" id="6ae326ff-b6af-48cf-95f3-5dbc419686e2" fill="url(#a6b3a9d2-e3c4-456e-8def-8bbb74085559)" transform="matrix(2.996272614523171,0,0,2.996272614523171,36.78087950976027,122.02130620536116)"><path d="M9.00 7.31Q8.99 7.48 8.82 7.70Q8.65 7.92 8.47 8.04Q8.29 8.16 8.18 8.19L8.18 8.19Q7.92 8.26 7.94 8.04L7.94 8.04Q7.99 7.45 7.75 6.88Q7.50 6.31 7.01 5.94Q6.52 5.56 5.93 5.45Q5.33 5.33 4.77 5.49L4.77 5.49Q3.02 5.96 2.34 8.92L2.34 8.92Q1.82 11.14 2.62 12.63L2.62 12.63Q3.07 13.47 3.86 13.94Q4.66 14.41 5.57 14.38Q6.47 14.35 7.03 13.96Q7.59 13.57 7.83 12.92L7.83 12.92Q7.91 12.73 8.11 12.52Q8.32 12.31 8.52 12.21Q8.72 12.12 8.81 12.20Q8.90 12.28 8.83 12.47L8.83 12.47Q8.60 13.06 8.14 13.64Q7.69 14.22 7.08 14.64L7.08 14.64Q6.02 15.40 4.91 15.44Q3.79 15.47 2.93 14.97Q2.07 14.46 1.60 13.58L1.60 13.58Q0.73 11.96 1.30 9.53L1.30 9.53Q1.95 6.75 3.79 5.28L3.79 5.28Q5.26 4.12 6.76 4.38L6.76 4.38Q7.45 4.51 7.98 4.93Q8.51 5.35 8.79 5.98Q9.07 6.61 9.00 7.31L9.00 7.31ZM14.48 7.34L14.48 7.34Q17.05 7.56 16.55 11.55L16.55 11.55Q16.34 13.15 15.61 14.11L15.61 14.11Q14.49 15.60 12.82 15.44L12.82 15.44Q10.00 15.19 10.43 11.80L10.43 11.80Q10.56 10.84 10.80 10.11Q11.05 9.38 11.54 8.75L11.54 8.75Q12.73 7.18 14.48 7.34ZM13.66 8.40L13.66 8.40Q12.60 8.30 12.22 8.81L12.22 8.81Q12.01 9.07 11.80 9.68Q11.59 10.29 11.49 11.10L11.49 11.10Q11.10 14.15 13.64 14.38L13.64 14.38Q14.60 14.46 14.91 14.06L14.91 14.06Q15.06 13.85 15.23 13.36Q15.40 12.88 15.48 12.25L15.48 12.25Q15.96 8.60 13.66 8.40ZM22.97 4.07Q22.99 3.91 23.16 3.69Q23.32 3.47 23.51 3.35Q23.69 3.22 23.80 3.19L23.80 3.19Q24.05 3.12 24.04 3.35L24.04 3.35L23.09 14.55Q23.07 14.70 22.90 14.92Q22.74 15.15 22.55 15.27Q22.37 15.40 22.26 15.43L22.26 15.43Q22.01 15.50 22.02 15.27L22.02 15.27L22.12 14.17Q21.41 15.05 20.65 15.33Q19.89 15.61 19.25 15.43L19.25 15.43Q17.26 14.85 18.05 10.81L18.05 10.81Q18.31 9.46 18.98 8.60L18.98 8.60Q20.15 7.11 21.80 7.34L21.80 7.34Q22.32 7.41 22.67 7.64L22.67 7.64L22.97 4.07ZM22.25 12.66L22.47 10.05Q22.29 8.55 20.96 8.40L20.96 8.40Q20.55 8.36 20.24 8.41L20.24 8.41Q19.80 8.50 19.66 8.68L19.66 8.68Q19.31 9.14 19.11 10.16L19.11 10.16Q18.38 13.89 20.12 14.36L20.12 14.36Q21 14.62 21.48 14.04L21.48 14.04Q21.84 13.61 22.20 12.74L22.20 12.74Q22.22 12.70 22.25 12.66L22.25 12.66ZM29.90 11.73L25.84 11.63Q25.79 14.22 28.10 14.38L28.10 14.38Q28.59 14.42 28.98 14.35L28.98 14.35Q29.48 14.27 29.54 14.15L29.54 14.15Q29.65 13.94 29.87 13.75Q30.09 13.55 30.27 13.49Q30.45 13.43 30.52 13.54L30.52 13.54Q30.62 13.72 30.25 14.20Q29.89 14.67 29.50 14.95Q29.12 15.22 28.76 15.32L28.76 15.32Q27.94 15.54 27.29 15.44L27.29 15.44Q24.53 15.26 24.81 11.96L24.81 11.96Q24.89 10.93 25.12 10.18Q25.34 9.44 25.83 8.78L25.83 8.78Q26.95 7.27 28.62 7.34L28.62 7.34Q31.26 7.43 30.83 10.85L30.83 10.85Q30.70 11.41 30.27 11.65L30.27 11.65Q30.10 11.75 29.90 11.73L29.90 11.73ZM25.94 10.58L25.94 10.58Q26.04 10.56 26.10 10.56L26.10 10.56L29.82 10.64Q29.78 8.47 27.82 8.40L27.82 8.40Q26.87 8.36 26.54 8.81L26.54 8.81Q26.12 9.37 25.94 10.58ZM40.21 7.31Q40.19 7.48 40.03 7.70Q39.86 7.92 39.68 8.04Q39.49 8.16 39.38 8.19L39.38 8.19Q39.13 8.26 39.14 8.04L39.14 8.04Q39.20 7.45 38.95 6.88Q38.71 6.31 38.22 5.94Q37.73 5.56 37.13 5.45Q36.54 5.33 35.98 5.49L35.98 5.49Q34.23 5.96 33.54 8.92L33.54 8.92Q33.03 11.14 33.82 12.63L33.82 12.63Q34.27 13.47 35.07 13.94Q35.87 14.41 36.77 14.38Q37.67 14.35 38.23 13.96Q38.79 13.57 39.03 12.92L39.03 12.92Q39.12 12.73 39.32 12.52Q39.52 12.31 39.73 12.21Q39.93 12.12 40.02 12.20Q40.11 12.28 40.04 12.47L40.04 12.47Q39.80 13.06 39.35 13.64Q38.89 14.22 38.29 14.64L38.29 14.64Q37.23 15.40 36.11 15.44Q35 15.47 34.14 14.97Q33.28 14.46 32.80 13.58L32.80 13.58Q31.93 11.96 32.51 9.53L32.51 9.53Q33.15 6.75 35 5.28L35 5.28Q36.47 4.12 37.97 4.38L37.97 4.38Q38.65 4.51 39.19 4.93Q39.72 5.35 40.00 5.98Q40.28 6.61 40.21 7.31L40.21 7.31ZM45.68 7.34L45.68 7.34Q48.26 7.56 47.75 11.55L47.75 11.55Q47.54 13.15 46.82 14.11L46.82 14.11Q45.70 15.60 44.03 15.44L44.03 15.44Q41.20 15.19 41.64 11.80L41.64 11.80Q41.76 10.84 42.01 10.11Q42.25 9.38 42.74 8.75L42.74 8.75Q43.93 7.18 45.68 7.34ZM44.87 8.40L44.87 8.40Q43.81 8.30 43.43 8.81L43.43 8.81Q43.22 9.07 43.01 9.68Q42.80 10.29 42.70 11.10L42.70 11.10Q42.31 14.15 44.84 14.38L44.84 14.38Q45.81 14.46 46.12 14.06L46.12 14.06Q46.27 13.85 46.44 13.36Q46.61 12.88 46.69 12.25L46.69 12.25Q47.17 8.60 44.87 8.40ZM49.69 8.22Q49.70 8.06 49.87 7.84Q50.04 7.62 50.22 7.50Q50.40 7.38 50.53 7.35L50.53 7.35Q50.78 7.29 50.75 7.50L50.75 7.50L50.68 8.12Q51.76 7.21 52.91 7.34L52.91 7.34Q53.10 7.36 53.00 7.63L53.00 7.63Q52.86 7.99 52.54 8.20Q52.22 8.41 52.09 8.40L52.09 8.40Q51.38 8.32 50.88 8.69L50.88 8.69Q50.64 8.88 50.54 9.55L50.54 9.55L50.01 14.56Q49.99 14.73 49.83 14.95Q49.66 15.16 49.48 15.28Q49.29 15.40 49.17 15.43L49.17 15.43Q48.92 15.48 48.94 15.26L48.94 15.26L49.46 10.36Q49.46 10.33 49.48 10.25L49.48 10.25L49.69 8.22ZM59.11 9.47Q59.00 9.69 58.78 9.88Q58.56 10.07 58.38 10.11Q58.20 10.15 58.16 10.04L58.16 10.04Q57.92 9.39 57.39 8.94Q56.87 8.48 56.29 8.40Q55.72 8.32 55.40 8.50L55.40 8.50Q55.12 9.09 55.55 9.74L55.55 9.74Q55.93 10.32 57.06 10.77L57.06 10.77Q57.83 11.07 58.09 11.21L58.09 11.21Q59.21 11.90 59.18 12.98L59.18 12.98Q59.15 13.83 58.37 14.62L58.37 14.62Q56.94 16.03 55.13 15.15L55.13 15.15Q54.11 14.64 53.45 13.59L53.45 13.59Q53.40 13.50 53.50 13.29Q53.61 13.08 53.82 12.88Q54.03 12.68 54.22 12.61Q54.42 12.54 54.47 12.64L54.47 12.64Q55.23 13.83 56.41 14.25L56.41 14.25Q57.16 14.52 57.76 14.32L57.76 14.32Q57.96 14.25 58.00 14.20L58.00 14.20Q58.18 13.89 58.07 13.40L58.07 13.40Q57.88 12.50 56.52 11.96L56.52 11.96Q56.46 11.93 56.20 11.83L56.20 11.83Q55.44 11.54 55.19 11.34L55.19 11.34Q53.91 10.42 54.35 9.13L54.35 9.13Q54.52 8.61 54.91 8.20L54.91 8.20Q55.90 7.17 57.06 7.34L57.06 7.34Q57.79 7.43 58.37 7.93Q58.94 8.43 59.19 9.14L59.19 9.14Q59.23 9.25 59.11 9.47ZM66.67 13.96Q66.85 13.93 66.88 14.06Q66.91 14.20 66.76 14.42Q66.61 14.64 66.26 14.92Q65.91 15.20 65.52 15.36L65.52 15.36Q64.75 15.67 64.57 15.08L64.57 15.08Q64.48 14.84 64.50 14.20L64.50 14.20Q63.77 15.08 63.03 15.34Q62.29 15.61 61.64 15.43L61.64 15.43Q59.64 14.87 60.44 10.81L60.44 10.81Q60.70 9.46 61.38 8.60L61.38 8.60Q62.52 7.11 64.19 7.34L64.19 7.34Q64.89 7.42 65.28 7.85L65.28 7.85Q65.60 7.42 65.95 7.34L65.95 7.34Q66.07 7.31 66.13 7.36Q66.19 7.41 66.18 7.52L66.18 7.52Q65.37 13.44 65.60 14.18L65.60 14.18Q65.72 14.52 65.97 14.39L65.97 14.39Q66.08 14.34 66.29 14.16Q66.50 13.99 66.67 13.96ZM64.57 12.80L64.57 12.80Q64.67 11.68 64.71 11.37L64.71 11.37Q65.07 8.62 63.35 8.40L63.35 8.40Q62.93 8.34 62.62 8.41L62.62 8.41Q62.20 8.50 62.05 8.68L62.05 8.68Q61.70 9.13 61.47 10.28Q61.25 11.42 61.28 12.31L61.28 12.31Q61.36 14.04 62.51 14.36L62.51 14.36Q63.39 14.62 63.87 14.04L63.87 14.04Q64.22 13.62 64.57 12.80ZM68.49 8.22Q68.50 8.06 68.67 7.84Q68.84 7.62 69.02 7.50Q69.20 7.38 69.33 7.35L69.33 7.35Q69.58 7.29 69.55 7.50L69.55 7.50L68.81 14.56Q68.80 14.73 68.63 14.95Q68.46 15.16 68.28 15.28Q68.10 15.40 67.97 15.43L67.97 15.43Q67.72 15.48 67.75 15.26L67.75 15.26L68.49 8.22ZM68.56 5.81Q68.57 5.66 68.73 5.43Q68.89 5.21 69.08 5.08Q69.26 4.96 69.38 4.93L69.38 4.93Q69.64 4.86 69.62 5.08L69.62 5.08L69.55 6.06Q69.54 6.22 69.38 6.44Q69.22 6.66 69.03 6.79Q68.85 6.92 68.73 6.94L68.73 6.94Q68.47 7.01 68.49 6.79L68.49 6.79L68.56 5.81ZM71.15 8.22Q71.16 8.06 71.33 7.84Q71.50 7.62 71.68 7.50Q71.86 7.38 71.99 7.35L71.99 7.35Q72.24 7.29 72.21 7.50L72.21 7.50L72.14 8.12Q73.22 7.21 74.37 7.34L74.37 7.34Q74.56 7.36 74.47 7.63L74.47 7.63Q74.33 7.99 74.00 8.20Q73.68 8.41 73.56 8.40L73.56 8.40Q72.84 8.32 72.34 8.69L72.34 8.69Q72.10 8.88 72.00 9.55L72.00 9.55L71.47 14.56Q71.46 14.73 71.29 14.95Q71.12 15.16 70.94 15.28Q70.76 15.40 70.63 15.43L70.63 15.43Q70.38 15.48 70.41 15.26L70.41 15.26L70.92 10.36Q70.92 10.33 70.94 10.25L70.94 10.25L71.15 8.22Z"></path></g><!----><!----></svg>